<?xml version="1.0" ?>
<!-- Uploaded to: SVG Repo, www.svgrepo.com, Generator: SVG Repo Mixer Tools -->
<svg width="800px" height="800px" viewBox="0 0 32 32" xmlns="http://www.w3.org/2000/svg">
<defs>
<style>.cls-1{fill:#8c9eff;}.cls-2{fill:#5f7cf9;}</style>
</defs>
<title/>
<g data-name="Left arrow" id="Left_arrow">
<path class="cls-1" d="M25,15H9.14l3.63-4.36a1,1,0,0,0-1.54-1.28l-5,6a1.19,1.19,0,0,0-.09.15c0,.05,0,.08-.07.13A1,1,0,0,0,6,16H6a1,1,0,0,0,.07.36c0,.05,0,.08.07.13a1.19,1.19,0,0,0,.09.15l5,6A1,1,0,0,0,12,23a1,1,0,0,0,.64-.23,1,1,0,0,0,.13-1.41L9.14,17H25a1,1,0,0,0,0-2Z"/>
<path class="cls-2" d="M6.07,16.36c0,.05,0,.08.07.13a1.19,1.19,0,0,0,.09.15l5,6A1,1,0,0,0,12,23a1,1,0,0,0,.64-.23,1,1,0,0,0,.13-1.41L9.14,17H25a1,1,0,0,0,1-1H6A1,1,0,0,0,6.07,16.36Z"/>
</g>
</svg>